<?xml version="1.0" encoding="iso-8859-1"?>
<!-- Generator: Adobe Illustrator 19.0.0, SVG Export Plug-In . SVG Version: 6.00 Build 0)  -->
<svg version="1.1" id="Layer_1" xmlns="http://www.w3.org/2000/svg" xmlns:xlink="http://www.w3.org/1999/xlink" x="0px" y="0px"
	 viewBox="0 0 512 512" style="enable-background:new 0 0 512 512;" xml:space="preserve">
<g>
	<g>
		<path d="M512,65.881L446.119,0L332.364,114.407L258.717,40.76v212.525H471.24l-73.648-73.648L512,65.881z M431.896,236.987
			H275.014V80.105l57.383,57.383L446.152,23.08l42.767,42.767L374.513,179.604L431.896,236.987z"/>
	</g>
</g>
<g>
	<g>
		<rect x="299.458" y="204.39" width="76.054" height="16.297"/>
	</g>
</g>
<g>
	<g>
		<path d="M40.76,258.716l73.648,73.648L0,446.119L65.881,512l113.754-114.408l73.648,73.648V258.716H40.76z M236.986,431.895
			l-57.383-57.383L65.848,488.92L23.08,446.152l114.407-113.755l-57.383-57.383h156.881V431.895z"/>
	</g>
</g>
<g>
	<g>
		<rect x="136.485" y="291.309" width="76.054" height="16.297"/>
	</g>
</g>
<g>
</g>
<g>
</g>
<g>
</g>
<g>
</g>
<g>
</g>
<g>
</g>
<g>
</g>
<g>
</g>
<g>
</g>
<g>
</g>
<g>
</g>
<g>
</g>
<g>
</g>
<g>
</g>
<g>
</g>
</svg>
