<svg xmlns="http://www.w3.org/2000/svg" xmlns:xlink="http://www.w3.org/1999/xlink" width="19" height="15"
     viewBox="0 0 19 15">
  <defs>
    <path id="2eija" d="M20 187.04V202h18.98v-14.96z"/>
    <path id="2eijc"
          d="M37.93 199.6c0 .72-.57 1.3-1.26 1.3H22.32c-.7 0-1.26-.58-1.26-1.3v-10.15c0-.72.57-1.3 1.26-1.3h14.34c.7 0 1.26.58 1.26 1.3v10.15zm-1.26-12.56H22.32a2.37 2.37 0 0 0-2.32 2.4v10.16c0 1.32 1.04 2.4 2.32 2.4h14.34a2.37 2.37 0 0 0 2.32-2.4v-10.15c0-1.33-1.03-2.41-2.31-2.41z"/>
    <path id="2eijd"
          d="M31.97 194.4l4.64-4.32c.22-.2.24-.55.04-.78a.52.52 0 0 0-.75-.04l-6.4 5.96-1.25-1.16v-.01a.82.82 0 0 0-.1-.08l-5.07-4.71a.52.52 0 0 0-.75.04c-.2.23-.18.58.04.78l4.7 4.35-4.68 4.54a.57.57 0 0 0-.03.77c.11.12.25.18.4.18.12 0 .25-.05.35-.15l4.75-4.6 1.3 1.2a.52.52 0 0 0 .7-.01l1.32-1.23 4.72 4.65a.52.52 0 0 0 .75-.02c.2-.22.2-.57-.02-.78z"/>
    <clipPath id="2eijb">
      <use xlink:href="#2eija"/>
    </clipPath>
  </defs>
  <g>
    <g transform="translate(-20 -187)">
      <g>
        <g/>
        <g clip-path="url(#2eijb)">
          <use fill="#b7b7b7" xlink:href="#2eijc"/>
        </g>
      </g>
      <g>
        <use fill="#b7b7b7" xlink:href="#2eijd"/>
      </g>
    </g>
  </g>
</svg>
