<?xml version="1.0" encoding="iso-8859-1"?>
<!-- Generator: Adobe Illustrator 19.0.0, SVG Export Plug-In . SVG Version: 6.00 Build 0)  -->
<svg version="1.1" id="Layer_1" xmlns="http://www.w3.org/2000/svg" xmlns:xlink="http://www.w3.org/1999/xlink" x="0px" y="0px"
	 viewBox="0 0 512 512" style="enable-background:new 0 0 512 512;" xml:space="preserve">
<g>
	<g>
		<rect x="398.516" y="31.67" width="73.897" height="15.835"/>
	</g>
</g>
<g>
	<g>
		<rect x="31.67" y="34.309" width="15.835" height="79.175"/>
	</g>
</g>
<g>
	<g>
		<rect x="464.495" y="409.072" width="15.835" height="68.619"/>
	</g>
</g>
<g>
	<g>
		<path d="M512,206.495V0H305.505l71.564,71.566L256.114,192.134L134.938,71.559L206.495,0H0v206.495l71.558-71.558L192.097,256
			L71.558,377.063L0,305.505V512h206.495l-71.558-71.559l121.177-120.575L377.07,440.434L305.505,512H512V305.505l-71.565,71.565
			L319.752,256l120.683-121.07L512,206.495z M297.393,256l143.023,143.481l55.749-55.749v152.432H343.733l55.75-55.748
			L256.097,297.49L112.512,440.41l55.755,55.755H15.835V343.733l55.755,55.755L214.546,256L71.59,112.512l-55.755,55.755V15.835
			h152.432L112.511,71.59l143.585,142.92L399.481,71.583l-55.749-55.748h152.432v152.432l-55.749-55.749L297.393,256z"/>
	</g>
</g>
<g>
	<g>
		<rect x="39.588" y="464.495" width="73.897" height="15.835"/>
	</g>
</g>
<g>
</g>
<g>
</g>
<g>
</g>
<g>
</g>
<g>
</g>
<g>
</g>
<g>
</g>
<g>
</g>
<g>
</g>
<g>
</g>
<g>
</g>
<g>
</g>
<g>
</g>
<g>
</g>
<g>
</g>
</svg>
