<svg xmlns="http://www.w3.org/2000/svg" xmlns:xlink="http://www.w3.org/1999/xlink" width="18" height="17"
     viewBox="0 0 18 17">
    <defs>
        <path id="cq8oa"
              d="M291.25 39.91a.45.45 0 0 0-.08.25v4.12c0 .14-.06.26-.15.34l-2.17 1.57v-6.03c0-.15-.06-.27-.16-.33l-4.42-5.77h7.1a.4.4 0 0 0 .39-.4.4.4 0 0 0-.4-.41h-7.7l-1.87-2.44h16.42zm7.67-9.46a.78.78 0 0 0-.7-.45h-16.43c-.3 0-.57.18-.7.45-.14.28-.1.6.07.85l6.9 9.02v5.87a.8.8 0 0 0 .79.81c.15 0 .3-.04.45-.14l2.17-1.57c.31-.24.49-.6.49-1v-4l6.88-8.99a.83.83 0 0 0 .08-.85z"/>
    </defs>
    <g>
        <g transform="translate(-281 -30)">
            <use fill="#404040" xlink:href="#cq8oa"/>
        </g>
    </g>
</svg>