<svg xmlns="http://www.w3.org/2000/svg" xmlns:xlink="http://www.w3.org/1999/xlink" width="18" height="18"
     viewBox="0 0 18 18">
  <defs>
    <path id="yyhsa"
          d="M38.32 221.3l-2.73-2.73a1.43 1.43 0 0 0-2.02.04l-1.37 1.37c-.1-.04-.18-.1-.28-.15-.87-.48-2.06-1.14-3.31-2.4a13.77 13.77 0 0 1-2.55-3.58l.92-.93.46-.45c.56-.57.58-1.47.03-2.02l-2.73-2.73a1.42 1.42 0 0 0-2.02.04l-.77.77.02.02a4.47 4.47 0 0 0-.91 2.26c-.37 3 1 5.73 4.72 9.45 5.13 5.13 9.27 4.75 9.45 4.73a4.62 4.62 0 0 0 2.26-.92l.01.01.79-.76c.56-.57.58-1.47.03-2.02z"/>
  </defs>
  <g>
    <g clip-path="url(#clip-9A36DD88-FEF9-45BF-8AD6-CD55E9492136)" transform="translate(-21 -207)">
      <use fill="#cfcfcf" xlink:href="#yyhsa"/>
    </g>
  </g>
</svg>
