<svg xmlns="http://www.w3.org/2000/svg" xmlns:xlink="http://www.w3.org/1999/xlink" width="23" height="23"
     viewBox="0 0 23 23">
  <defs>
    <path id="1b9pa" d="M51 178.5a10.5 10.5 0 1 1 21 0 10.5 10.5 0 0 1-21 0z"/>
    <path id="1b9pb"
          d="M72 178.58a9.9 9.9 0 0 0-1.72-5.58s-.62.85-.5 1.4c.11.55.79.6.72 1-.07.4-.57-.12-1.18.95-.61 1.06-.3 2.52.57 2.63.89.11 2.11-.4 2.11-.4z"/>
    <path id="1b9pc"
          d="M64.27 168c1.36.4 2.62 1.04 3.73 1.9 0 0-1.35-.24-1.87.25-.5.49-1.26 1.64-1.86 0-.6-1.65 0-2.15 0-2.15z"/>
    <path id="1b9pd"
          d="M54 171.56c1.9-2.18 4.7-3.56 7.83-3.56 0 0-.71.43.63 1.16 1.34.72.72 1.06.44 1.28-.27.23-.76-.44-1.07-.9-.32-.44-1.68-1.13-2.72-.76-1.04.38-1.93.65-1.78 1 .15.35 1.93-.32 2.6-.29.67.04.45.45-.18.94-.64.48-.71 1.08-.04 1.45.67.38 1.48.41 1.67.19.19-.23-.33-1.68.93-1.05 1.26.64 2.3 1.01 1.26 1.94-1.04.94-2.23 1.98-2.26 2.58-.04.6.37 1.08.15 1.12-.23.04-.43-.24-.58-.45-.15-.2-.84-.28-1.17-.15-.34.13-.97.64-.62 1.12.36.49.84.26 1.32.49.49.22.94 1.07.85 1.27-.1.19-.5-.06-.85-.71-.33-.66-.97-.23-1.41-.34-.44-.11-.78-.19-1.23-.97-.44-.78-1.37-1-1.74-1.45-1.08-1.3-1-2.28-1.23-2.73-.22-.45-.8-1.18-.8-1.18z"/>
    <path id="1b9pe"
          d="M62.44 179.02s1.24.11 1.86.59c.62.47.7.65 1.66.83.95.18 1.37.65.75 1.56-.63.9-1.75 2.36-2.28 2.8-.54.43-1.2.8-1.46 1.52-.24.73-.33 1.16.21 1.45 0 0-.29.62-.95-.18-.67-.8-.13-1.74 0-2.29.12-.54.45-2.17.25-2.57-.21-.4-1.16-.66-1.41-1.5-.25-.83.18-2.45 1.37-2.2z"/>
  </defs>
  <g>
    <g transform="translate(-50 -167)">
      <g>
        <use fill="#c1c1c1" xlink:href="#1b9pa"/>
        <use fill="#fff" fill-opacity="0" stroke="#c1c1c1" stroke-miterlimit="50" xlink:href="#1b9pa"/>
      </g>
      <g>
        <use fill="#fff" xlink:href="#1b9pb"/>
      </g>
      <g>
        <use fill="#fff" xlink:href="#1b9pc"/>
      </g>
      <g>
        <use fill="#fff" xlink:href="#1b9pd"/>
      </g>
      <g>
        <use fill="#fff" xlink:href="#1b9pe"/>
      </g>
    </g>
  </g>
</svg>
